<svg width="24" height="24" viewBox="0 0 24 24" fill="none" xmlns="http://www.w3.org/2000/svg">
<path fill-rule="evenodd" clip-rule="evenodd" d="M19.9283 4.12314C20.1742 4.01411 20.4434 3.9765 20.7078 4.01424C20.9722 4.05198 21.2221 4.16368 21.4316 4.33772C21.6411 4.51177 21.8025 4.74178 21.899 5.00384C21.9955 5.26589 22.0235 5.5504 21.9802 5.82775L19.7234 20.2498C19.5044 21.6409 18.0556 22.4387 16.8446 21.7458C15.8316 21.166 14.327 20.2728 12.9737 19.3409C12.297 18.8744 10.2243 17.3805 10.479 16.3175C10.6979 15.4085 14.1807 11.993 16.1709 9.96241C16.952 9.16462 16.5958 8.7044 15.6734 9.43824C13.3827 11.2603 9.70483 14.031 8.48884 14.811C7.41614 15.4987 6.8569 15.6161 6.1882 15.4987C4.96823 15.2848 3.83682 14.9536 2.91338 14.55C1.66554 14.0048 1.72624 12.1975 2.91238 11.6712L19.9283 4.12314Z" fill="#A6A9A2"/>
</svg>
