<svg width="24" height="24" viewBox="0 0 24 24" fill="none" xmlns="http://www.w3.org/2000/svg">
<path d="M14.7657 3H9.2442C4.1988 3 3 4.1997 3 9.2343V14.7567C3 19.8003 4.1907 21 9.2343 21H14.7567C19.8003 21 21 19.8093 21 14.7657V9.2442C21 4.1988 19.8093 3 14.7657 3ZM17.5314 15.843H16.2183C15.7215 15.843 15.5721 15.4407 14.6811 14.5497C13.9035 13.8 13.575 13.7064 13.3779 13.7064C13.1061 13.7064 13.0314 13.7811 13.0314 14.1564V15.3372C13.0314 15.6567 12.9279 15.8439 12.0936 15.8439C11.2841 15.7889 10.4991 15.5427 9.80319 15.1254C9.10729 14.7082 8.52029 14.1318 8.0904 13.4436C7.07012 12.1751 6.36062 10.6855 6.0186 9.0939C6.0186 8.8968 6.0933 8.7186 6.4686 8.7186H7.7817C8.1192 8.7186 8.2407 8.8689 8.3721 9.2154C9.0093 11.091 10.0965 12.7218 10.5375 12.7218C10.7067 12.7218 10.7805 12.6471 10.7805 12.225V10.2936C10.7247 9.4125 10.2567 9.3378 10.2567 9.0192C10.2627 8.93517 10.3012 8.85678 10.3641 8.80066C10.4269 8.74454 10.5091 8.71511 10.5933 8.7186H12.6561C12.9378 8.7186 13.0314 8.859 13.0314 9.1965V11.8029C13.0314 12.0846 13.1529 12.1782 13.2375 12.1782C13.4067 12.1782 13.5372 12.0846 13.8468 11.775C14.5118 10.964 15.0551 10.0606 15.4596 9.093C15.5012 8.97695 15.5795 8.87762 15.6826 8.81006C15.7858 8.7425 15.9081 8.71039 16.0311 8.7186H17.3442C17.7375 8.7186 17.8212 8.9157 17.7375 9.1965C17.2601 10.2661 16.6693 11.2814 15.9753 12.225C15.834 12.441 15.7773 12.5535 15.9753 12.8064C16.1058 13.0035 16.5657 13.3878 16.8753 13.7532C17.325 14.2021 17.6986 14.7213 17.9814 15.2904C18.0939 15.6558 17.9058 15.843 17.5314 15.843Z" fill="#A6A9A2"/>
</svg>
